<mxfile host="app.diagrams.net" modified="2022-01-29T09:18:10.734Z" agent="5.0 (Macintosh; Intel Mac OS X 10_15_7) AppleWebKit/605.1.15 (KHTML, like Gecko) Version/15.1 Safari/605.1.15" etag="UaMLQ7nQGBmioEKq54NY" version="16.5.2" type="github">
  <diagram id="trtkZC5LTmD1iUUZCGVV" name="Page-1">
    <mxGraphModel dx="653" dy="755" grid="1" gridSize="10" guides="1" tooltips="1" connect="1" arrows="1" fold="1" page="1" pageScale="1" pageWidth="827" pageHeight="1169" math="0" shadow="0">
      <root>
        <mxCell id="0" />
        <mxCell id="1" parent="0" />
        <mxCell id="MG_Bbs4pZN3JLvo1smqu-6" value="" style="rounded=0;whiteSpace=wrap;html=1;fontSize=15;" parent="1" vertex="1">
          <mxGeometry x="70" y="90" width="820" height="560" as="geometry" />
        </mxCell>
        <mxCell id="MG_Bbs4pZN3JLvo1smqu-1" value="" style="rounded=1;whiteSpace=wrap;html=1;" parent="1" vertex="1">
          <mxGeometry x="180" y="170" width="170" height="220" as="geometry" />
        </mxCell>
        <mxCell id="MG_Bbs4pZN3JLvo1smqu-2" value="name" style="rounded=1;whiteSpace=wrap;html=1;fontSize=15;fillColor=#e1d5e7;strokeColor=#9673a6;" parent="1" vertex="1">
          <mxGeometry x="190" y="180" width="150" height="60" as="geometry" />
        </mxCell>
        <mxCell id="MG_Bbs4pZN3JLvo1smqu-3" value="hobby" style="rounded=1;whiteSpace=wrap;html=1;fontSize=15;fillColor=#e1d5e7;strokeColor=#9673a6;" parent="1" vertex="1">
          <mxGeometry x="190" y="250" width="150" height="60" as="geometry" />
        </mxCell>
        <mxCell id="MG_Bbs4pZN3JLvo1smqu-4" value="Stack" style="text;html=1;strokeColor=none;fillColor=none;align=center;verticalAlign=middle;whiteSpace=wrap;rounded=0;fontSize=15;" parent="1" vertex="1">
          <mxGeometry x="235" y="130" width="60" height="30" as="geometry" />
        </mxCell>
        <mxCell id="MG_Bbs4pZN3JLvo1smqu-5" value="b：" style="text;html=1;strokeColor=none;fillColor=none;align=center;verticalAlign=middle;whiteSpace=wrap;rounded=0;fontSize=15;" parent="1" vertex="1">
          <mxGeometry x="120" y="180" width="40" height="30" as="geometry" />
        </mxCell>
        <mxCell id="PbLYVgh8FkDyqq6DzYR4-8" style="edgeStyle=orthogonalEdgeStyle;rounded=0;orthogonalLoop=1;jettySize=auto;html=1;exitX=1;exitY=0.5;exitDx=0;exitDy=0;entryX=0;entryY=0.5;entryDx=0;entryDy=0;" edge="1" parent="1" source="PbLYVgh8FkDyqq6DzYR4-1" target="PbLYVgh8FkDyqq6DzYR4-7">
          <mxGeometry relative="1" as="geometry" />
        </mxCell>
        <mxCell id="PbLYVgh8FkDyqq6DzYR4-1" value="g" style="rounded=1;whiteSpace=wrap;html=1;fontSize=15;fillColor=#e1d5e7;strokeColor=#9673a6;" vertex="1" parent="1">
          <mxGeometry x="190" y="320" width="150" height="60" as="geometry" />
        </mxCell>
        <mxCell id="PbLYVgh8FkDyqq6DzYR4-2" value="" style="rounded=1;whiteSpace=wrap;html=1;" vertex="1" parent="1">
          <mxGeometry x="440" y="310" width="170" height="290" as="geometry" />
        </mxCell>
        <mxCell id="PbLYVgh8FkDyqq6DzYR4-3" value="unknow" style="rounded=1;whiteSpace=wrap;html=1;fontSize=15;fillColor=#e1d5e7;strokeColor=#9673a6;" vertex="1" parent="1">
          <mxGeometry x="450" y="390" width="150" height="60" as="geometry" />
        </mxCell>
        <mxCell id="PbLYVgh8FkDyqq6DzYR4-4" value="name" style="rounded=1;whiteSpace=wrap;html=1;fontSize=15;fillColor=#e1d5e7;strokeColor=#9673a6;" vertex="1" parent="1">
          <mxGeometry x="450" y="460" width="150" height="60" as="geometry" />
        </mxCell>
        <mxCell id="PbLYVgh8FkDyqq6DzYR4-5" value="Heap" style="text;html=1;strokeColor=none;fillColor=none;align=center;verticalAlign=middle;whiteSpace=wrap;rounded=0;fontSize=15;" vertex="1" parent="1">
          <mxGeometry x="495" y="270" width="60" height="30" as="geometry" />
        </mxCell>
        <mxCell id="PbLYVgh8FkDyqq6DzYR4-6" value="hobby" style="rounded=1;whiteSpace=wrap;html=1;fontSize=15;fillColor=#e1d5e7;strokeColor=#9673a6;" vertex="1" parent="1">
          <mxGeometry x="450" y="530" width="150" height="60" as="geometry" />
        </mxCell>
        <mxCell id="PbLYVgh8FkDyqq6DzYR4-7" value="unknow" style="rounded=1;whiteSpace=wrap;html=1;fontSize=15;fillColor=#e1d5e7;strokeColor=#9673a6;" vertex="1" parent="1">
          <mxGeometry x="450" y="320" width="150" height="60" as="geometry" />
        </mxCell>
        <mxCell id="PbLYVgh8FkDyqq6DzYR4-9" value="引用类型第一个成员相对于首地址偏移了16字节，这16字节存储的内容，后面进行探索。" style="ellipse;whiteSpace=wrap;html=1;" vertex="1" parent="1">
          <mxGeometry x="650" y="280" width="180" height="110" as="geometry" />
        </mxCell>
        <mxCell id="PbLYVgh8FkDyqq6DzYR4-10" value="" style="endArrow=classic;html=1;rounded=0;exitX=1;exitY=0.5;exitDx=0;exitDy=0;entryX=0;entryY=0.5;entryDx=0;entryDy=0;" edge="1" parent="1" source="PbLYVgh8FkDyqq6DzYR4-7" target="PbLYVgh8FkDyqq6DzYR4-9">
          <mxGeometry width="50" height="50" relative="1" as="geometry">
            <mxPoint x="600" y="380" as="sourcePoint" />
            <mxPoint x="650" y="330" as="targetPoint" />
          </mxGeometry>
        </mxCell>
        <mxCell id="PbLYVgh8FkDyqq6DzYR4-12" value="" style="endArrow=classic;html=1;rounded=0;exitX=1;exitY=0.5;exitDx=0;exitDy=0;entryX=0.006;entryY=0.615;entryDx=0;entryDy=0;entryPerimeter=0;" edge="1" parent="1" source="PbLYVgh8FkDyqq6DzYR4-3" target="PbLYVgh8FkDyqq6DzYR4-9">
          <mxGeometry width="50" height="50" relative="1" as="geometry">
            <mxPoint x="630" y="450" as="sourcePoint" />
            <mxPoint x="680" y="400" as="targetPoint" />
          </mxGeometry>
        </mxCell>
      </root>
    </mxGraphModel>
  </diagram>
</mxfile>
